<?xml version="1.0" encoding="utf-8"?>
<!-- Generator: Adobe Illustrator 19.0.0, SVG Export Plug-In . SVG Version: 6.00 Build 0)  -->
<svg version="1.1" id="Layer_1" xmlns="http://www.w3.org/2000/svg" xmlns:xlink="http://www.w3.org/1999/xlink" x="0px" y="0px"
	 viewBox="0 0 189.5 162" style="enable-background:new 0 0 189.5 162;" xml:space="preserve">
<style type="text/css">
	.st0{fill:#B7E3FB;}
	.st1{fill:#070809;stroke:#000000;stroke-width:8.5039;stroke-miterlimit:10;}
	.st2{fill:#FEFEFE;}
</style>
<g>
	<path class="st0" d="M47.3,23.4c-1.6,1.1-3.4,2.1-4.9,3.3c-3.1,2.7-5,5.9-4.1,10.3c0.5,2.5-0.1,4.7-1.7,6.8c-3.2,4.4-5,9.2-2,14.6
		c1.1,2,0,3.6-1.4,5c-5.8,6.2-5.9,8.4-0.4,14.7c2.3,2.6,2.5,5,0.4,7.7c-1.9-3.8-4.6-7-7.2-10.3c-1.6-2-2.3-4.1-2.4-6.7
		C23,59.6,23.2,50.5,25,41.4C27.2,30.1,35.8,23.1,47.3,23.4z"/>
	<path class="st0" d="M75.1,19.8c3-1.3,6.3-0.8,9.5-1.1c9.5-0.9,18.9-2.7,27.9-5.7c6.7-2.2,13.2-2.1,19.9-0.1
		c-1.9,0.4-3.9,0.9-5.8,1.3c-2.4,0.5-2.8,1.9-1.7,3.9c1.2,2.1,2.6,4.2,3.6,6.4c7,15.7,6.9,31.9,3.9,48.4c-1,5.2-3.1,8.7-8.6,9.7
		c-0.8,0.1-1.5,0.4-2.2,0.8c-8,4.1-14.4,9.3-14.4,19.4c0,3.2-1.5,5.8-4.1,7.6c-1.8,1.3-3.7,2.5-5.6,3.6
		c-7.7,4.3-10.7,11.1-11.1,19.6c-0.3,5.3,0,10.6-1.2,15.9c-5.5-3.1-6.5-7-3.4-13.4c3.6-7.3,1.4-14.9-5.5-18.8
		c0.9-7.1-1.2-10.6-7.8-13c-2.7-1-5.5-1.6-8.5-1.6c-5,0-10-0.1-15-0.2c-1.8-2.3-3.7-4.6-5.6-6.9c-1.4-1.7-1.8-4.1-3.9-5.1
		c0.5-0.9,1-1.7,1.5-2.6c2.9-5.2,2.7-8.1-1.1-12.8c-0.5-0.6-1-1.2-1.5-1.8c-1.6-1.8-1.7-3.5,0-5.3c1.1-1.2,2.3-2.4,3.4-3.7
		c1.6-1.9,2.3-4.4,1.2-6.5C36.1,53,37.6,49,40.6,45c1.6-2,2.1-4.2,1.8-6.9c-0.6-5.6,1.5-9.4,6.9-10.9c13.3-3.7,27-3.9,40.6-2.3
		c10.6,1.3,21.1,3.3,31.8,3.6c1.5,0,3.1,0.1,3.3-1.9c0.1-1.9-1.4-2.2-3-2.3c-4.5-0.3-9.1-0.3-13.6-1C97.4,21.8,86.3,19.9,75.1,19.8z
		"/>
	<path class="st0" d="M152.6,86c-1.8,5.7-6.1,9.1-11.2,11.6c-11.5,5.6-19.9,14.6-26.7,25.2c-1.3,2.1-2.3,4.4-2.7,6.7
		c-1.1,5.7-3.5,10.9-6.2,16.1c-3.6,6.8-7.8,8.7-15.3,6.8c-0.4-0.1-0.9-0.2-1.3-0.3c1-4.4,1.5-8.8,1.2-13.2c-0.8-10.9,2.8-19,13-23.9
		c5.2-2.5,7.8-7,7.8-13c0-4,1.7-7.3,4.6-10c2.8-2.6,6-5,9.7-5.6c8.2-1.3,10.1-7.2,11-14c0.1-0.8,0.3-1.5,0.4-2.3
		c2.6-15.7,2.2-31.2-4.3-46.1c-3-6.9-3.1-6.9,4.7-7.5c2.7,1.4,4.5,3.5,5.8,6.2c4.3,8.7,7.1,17.9,10.5,27c2.6,7,4,14.3,3.6,21.8
		c-0.2,3.2-1.8,6.2-1.3,9.5l0-0.2c-0.3,0.1-0.5,0.2-0.8,0.3c-5.6,0.9-11.2,1.7-16.7,2.6c-1.3,0.2-3.1,0.2-2.7,2.4
		c0.4,2.2,2,1.9,3.6,1.7C143.9,87.2,148.2,86.1,152.6,86z"/>
	<path class="st1" d="M137.4,16.5c-7.8,0.6-7.8,0.6-4.7,7.5c6.5,14.9,6.8,30.4,4.3,46.1c-0.1,0.8-0.3,1.5-0.4,2.3
		c-0.9,6.8-2.8,12.6-11,14c-3.7,0.6-6.9,3-9.7,5.6c-2.9,2.7-4.6,6-4.6,10c0,5.9-2.6,10.5-7.8,13c-10.2,4.9-13.8,13-13,23.9
		c0.3,4.4-0.2,8.9-1.2,13.2c-4.6,7-12.7,7.1-17.5,0.2c-4.4-6.2-4.4-13.1-3.6-20.2c0.6-5.1,1.8-10,3.7-14.8c0.4-1,0.9-2.1,0.5-3.2
		c0.4-4-2.8-5-5.5-5.9c-4.9-1.8-10-1.7-15.1-1.3c-4.3-0.3-8.7,0.3-12.9-0.8c-2.6-0.7-5-1.8-7-3.6c-3-2.8-3.7-6.8-1.8-10.7
		c1-2.1,2.2-4.1,3.3-6.1c2.1-2.7,1.8-5.2-0.4-7.7c-5.5-6.3-5.4-8.5,0.4-14.7c1.4-1.5,2.5-3,1.4-5c-3-5.4-1.3-10.1,2-14.6
		c1.6-2.1,2.2-4.3,1.7-6.8c-0.8-4.3,1-7.6,4.1-10.3c1.5-1.3,3.3-2.2,4.9-3.3c9-3,18.5-2.7,27.8-3.5c11.3,0,22.3,2,33.4,3.6
		c4.5,0.6,9.1,0.7,13.6,1c1.6,0.1,3.1,0.4,3,2.3c-0.1,2-1.7,1.9-3.3,1.9c-10.7-0.2-21.2-2.3-31.8-3.6c-13.6-1.6-27.3-1.5-40.6,2.3
		c-5.5,1.5-7.5,5.3-6.9,10.9c0.3,2.6-0.3,4.8-1.8,6.9c-3,3.9-4.6,7.9-1.9,12.9c1.2,2.1,0.5,4.6-1.2,6.5c-1.1,1.3-2.2,2.5-3.4,3.7
		c-1.7,1.8-1.6,3.5,0,5.3c0.5,0.6,1,1.2,1.5,1.8c3.8,4.7,4.1,7.5,1.1,12.8c-0.5,0.9-1,1.7-1.5,2.6c-3.8,5.6-2.9,9,2.7,11
		c2.2,0.8,4.4,1.2,6.8,1c5,0.1,10,0.1,15,0.2c2.9,0,5.8,0.6,8.5,1.6c6.7,2.4,8.7,5.9,7.8,13c-3.1,7.4-4.9,15.2-4.5,23.2
		c0.3,4.9,1.4,9.6,6.3,12c3.4,1.7,6,0.5,7.1-3c1.2-5.2,0.9-10.6,1.2-15.9c0.4-8.5,3.4-15.3,11.1-19.6c1.9-1.1,3.8-2.4,5.6-3.6
		c2.6-1.8,4.1-4.4,4.1-7.6c0-10.1,6.4-15.3,14.4-19.4c0.7-0.4,1.4-0.6,2.2-0.8c5.5-0.9,7.6-4.4,8.6-9.7c3-16.5,3.1-32.7-3.9-48.4
		c-1-2.2-2.4-4.3-3.6-6.4c-1.2-2-0.8-3.4,1.7-3.9c1.9-0.4,3.9-0.9,5.8-1.3c6.4-1.4,12.8-2.5,19.1-4.2c3.6-1,5.5,0,7.1,3.2
		c8.9,17.2,10.7,35.3,7.1,54.1c-1,5-2.7,9.8-4.3,14.7c-1,3.3-3,4.7-6.2,4.7c-0.9,0-1.8,0-2.6,0.6c-4.5,0.1-8.8,1.2-13.2,1.7
		c-1.6,0.2-3.2,0.5-3.6-1.7c-0.4-2.2,1.4-2.2,2.7-2.4c5.6-0.9,11.2-1.7,16.7-2.6c0.4,0.1,0.7,0.1,0.8-0.3c0,0,0,0.2,0,0.2
		c1.6-0.3,1.5-1.8,1.9-2.8c4.4-11.5,6.1-23.4,5.2-35.6c-0.7-9.7-3.3-19-7.8-27.7c-0.5-1-0.8-2.5-2.5-2
		C147.8,14.2,142.4,14.6,137.4,16.5z"/>
	<path class="st2" d="M156.1,80.8c-0.1,0.5-0.4,0.4-0.8,0.3C155.6,81,155.8,80.9,156.1,80.8z"/>
</g>
</svg>
