<?xml version="1.0" encoding="utf-8"?>
<!-- Generator: Adobe Illustrator 19.0.0, SVG Export Plug-In . SVG Version: 6.00 Build 0)  -->
<svg version="1.1" id="Layer_1" xmlns="http://www.w3.org/2000/svg" xmlns:xlink="http://www.w3.org/1999/xlink" x="0px" y="0px"
	 viewBox="0 0 189.5 162" style="enable-background:new 0 0 189.5 162;" xml:space="preserve">
<style type="text/css">
	.st0{fill:#FD4C51;}
	.st1{fill:#0A0607;stroke:#000000;stroke-width:8.5039;stroke-miterlimit:10;}
</style>
<g>
	<path class="st0" d="M52.5,26.1c-18.3,5.2-28.2,21.1-29.2,39.5c-0.8,14.9,4.2,28,12.3,40.2c0.8,1.2,1.6,2.5,2.4,3.8
		c-6.8-2.6-13.1-6.1-17.5-12C8.4,81.5,5.7,56.1,21.3,38c6.1-7.1,13.7-11.8,23.3-12.7C47.3,25.1,49.9,25.3,52.5,26.1z"/>
	<path class="st0" d="M77.9,27.4c11.4-6.4,22.5-13.6,35.4-17c8.8-2.3,17.7-2.6,26.6-0.8c11.8,2.3,18.8,10.1,23,20.8
		c3.2,8.1,4.2,16.6,3.9,25.2c-0.3-0.9-0.6-1.9-0.9-2.8c-10.6-33-48.3-34.6-66-16.4c-1.3,1.3-3.3,2.9-1.5,4.7
		c1.9,1.9,2.9-0.8,3.9-1.8c12.6-12.7,33.7-14.6,47.6-3.5c12.1,9.7,15.8,22.9,14,38c-0.4,0.9-0.7,1.8-1.1,2.7
		c-5.6,14.4-13,27.7-25.2,37.6c-11.8,9.6-24.1,18.4-36.6,26.9c-6.1,4.1-6.2,4.2-11.9-0.3c-11.8-9.3-24.2-17.5-37.8-23.9
		c-1-0.5-1.8-1.3-3-1c-2.5-2.1-4.4-4.6-6.3-7.1C31.7,94.9,25.2,79.9,27.4,62.2c1.3-10.6,5.4-19.8,14.1-26.5c5.3-4.1,11.1-6.8,18-6.6
		c4,1.6,8,2,12.1,0.6c0.8,0.1,1.6,0.2,2.3,0.4c8.6,2.6,15.3,7.5,19.8,15.3c0.7,1.2,1.4,2.4,2.9,1.5c1.6-0.9,0.9-2.2,0.2-3.4
		c-0.8-1.4-1.7-2.7-2.6-4C90.1,33.8,84.2,30.3,77.9,27.4z"/>
	<path class="st1" d="M77.9,27.4c6.3,2.9,12.2,6.4,16.4,12.2c0.9,1.3,1.8,2.6,2.6,4c0.7,1.2,1.3,2.4-0.2,3.4
		c-1.6,0.9-2.3-0.2-2.9-1.5c-4.5-7.8-11.3-12.8-19.8-15.3c-0.8-0.2-1.6-0.3-2.3-0.4c-4-1.2-8-1.7-12.1-0.6c-6.9-0.3-12.8,2.5-18,6.6
		c-8.6,6.7-12.7,15.9-14.1,26.5c-2.2,17.7,4.3,32.7,14.7,46.3c1.9,2.5,3.9,5.1,6.3,7.1c0.6,0.7,1.1,1.4,1.7,2.1
		c12.9,13,27.9,23.1,44.2,31.4c1.3,0.7,2.2,0.2,3.3-0.3c11.4-5.4,21.9-12.2,31.7-20.1c12.6-10.2,23.6-21.8,30.3-36.9
		c2.5-5.8,4.6-11.7,4.5-18.1c1.8-15.1-1.9-28.3-14-38c-13.9-11.1-35-9.2-47.6,3.5c-1,1-2,3.7-3.9,1.8c-1.8-1.8,0.2-3.4,1.5-4.7
		c17.6-18.2,55.3-16.6,66,16.4c0.3,0.9,0.6,1.9,0.9,2.8c4.9,23.6-3.6,43.2-18.9,60.4c-14,15.8-31.2,27.5-50.1,36.9
		c-1.9,0.9-3.4,0.5-5.1-0.3c-20.5-10.4-39-23.3-53.6-41.4c-0.4-0.5-1-1-1.4-1.5c-0.8-1.3-1.5-2.5-2.4-3.8
		c-8.1-12.2-13.1-25.4-12.3-40.2c1-18.4,10.9-34.3,29.2-39.5C61.1,24,69.6,24.8,77.9,27.4z"/>
</g>
</svg>
